# Blender v2.78 (sub 0) OBJ File: 'room.blend'
# www.blender.org
mtllib room.mtl
o Icosphere
v -0.085059 -0.026079 -0.393850
v -0.030251 0.015790 -0.354030
v -0.105994 0.015790 -0.329419
v -0.152806 0.015791 -0.393850
v -0.105994 0.015790 -0.458281
v -0.030251 0.015790 -0.433671
v -0.064125 0.083538 -0.329419
v -0.139868 0.083538 -0.354030
v -0.139868 0.083538 -0.433671
v -0.064125 0.083538 -0.458281
v -0.017312 0.083538 -0.393850
v -0.085059 0.125408 -0.393850
v -0.097364 -0.014767 -0.355979
v -0.052844 -0.014767 -0.370445
v -0.065149 0.009843 -0.332573
v -0.020628 0.009843 -0.393850
v -0.052844 -0.014767 -0.417256
v -0.124880 -0.014767 -0.393850
v -0.137185 0.009843 -0.355979
v -0.097364 -0.014767 -0.431722
v -0.137185 0.009843 -0.431722
v -0.065149 0.009843 -0.455128
v -0.013023 0.049664 -0.370445
v -0.013023 0.049664 -0.417256
v -0.085059 0.049664 -0.318107
v -0.040538 0.049664 -0.332573
v -0.157096 0.049664 -0.370445
v -0.129580 0.049664 -0.332573
v -0.129580 0.049664 -0.455128
v -0.157096 0.049664 -0.417256
v -0.040538 0.049664 -0.455128
v -0.085059 0.049664 -0.469594
v -0.032934 0.089485 -0.355979
v -0.104970 0.089485 -0.332573
v -0.149490 0.089485 -0.393850
v -0.104970 0.089485 -0.455128
v -0.032934 0.089485 -0.431722
v -0.072754 0.114096 -0.355979
v -0.045239 0.114096 -0.393850
v -0.117275 0.114096 -0.370445
v -0.117275 0.114096 -0.417256
v -0.072754 0.114096 -0.431722
vn 0.1024 -0.9435 0.3151
vn 0.7002 -0.6617 0.2680
vn -0.2680 -0.9435 0.1947
vn -0.2680 -0.9435 -0.1947
vn 0.1024 -0.9435 -0.3151
vn 0.9050 -0.3304 0.2680
vn 0.0247 -0.3304 0.9435
vn -0.8897 -0.3304 0.3151
vn -0.5746 -0.3304 -0.7488
vn 0.5346 -0.3304 -0.7779
vn 0.8026 -0.1256 0.5831
vn -0.3066 -0.1256 0.9435
vn -0.9921 -0.1256 0.0000
vn -0.3066 -0.1256 -0.9435
vn 0.8026 -0.1256 -0.5831
vn 0.4089 0.6617 0.6284
vn -0.4713 0.6617 0.5831
vn -0.7002 0.6617 -0.2680
vn 0.0385 0.6617 -0.7488
vn 0.7240 0.6617 -0.1947
vn 0.2680 0.9435 -0.1947
vn 0.4911 0.7947 -0.3568
vn 0.4089 0.6617 -0.6284
vn -0.1024 0.9435 -0.3151
vn -0.1876 0.7947 -0.5773
vn -0.4713 0.6617 -0.5831
vn -0.3313 0.9435 0.0000
vn -0.6071 0.7947 0.0000
vn -0.7002 0.6617 0.2680
vn -0.1024 0.9435 0.3151
vn -0.1876 0.7947 0.5773
vn 0.0385 0.6617 0.7488
vn 0.2680 0.9435 0.1947
vn 0.4911 0.7947 0.3568
vn 0.7240 0.6617 0.1947
vn 0.8897 0.3304 -0.3151
vn 0.7947 0.1876 -0.5773
vn 0.5746 0.3304 -0.7488
vn -0.0247 0.3304 -0.9435
vn -0.3035 0.1876 -0.9342
vn -0.5346 0.3304 -0.7779
vn -0.9050 0.3304 -0.2680
vn -0.9822 0.1876 0.0000
vn -0.9050 0.3304 0.2680
vn -0.5346 0.3304 0.7779
vn -0.3035 0.1876 0.9342
vn -0.0247 0.3304 0.9435
vn 0.5746 0.3304 0.7488
vn 0.7947 0.1876 0.5773
vn 0.8897 0.3304 0.3151
vn 0.3066 0.1256 -0.9435
vn 0.3035 -0.1876 -0.9342
vn 0.0247 -0.3304 -0.9435
vn -0.8026 0.1256 -0.5831
vn -0.7947 -0.1876 -0.5773
vn -0.8897 -0.3304 -0.3151
vn -0.8026 0.1256 0.5831
vn -0.7947 -0.1876 0.5773
vn -0.5746 -0.3304 0.7488
vn 0.3066 0.1256 0.9435
vn 0.3035 -0.1876 0.9342
vn 0.5346 -0.3304 0.7779
vn 0.9921 0.1256 0.0000
vn 0.9822 -0.1876 0.0000
vn 0.9050 -0.3304 -0.2680
vn 0.4713 -0.6617 -0.5831
vn 0.1876 -0.7947 -0.5773
vn -0.0385 -0.6617 -0.7488
vn -0.4089 -0.6617 -0.6284
vn -0.4911 -0.7947 -0.3568
vn -0.7240 -0.6617 -0.1947
vn -0.7240 -0.6617 0.1947
vn -0.4911 -0.7947 0.3568
vn -0.4089 -0.6617 0.6284
vn 0.7002 -0.6617 -0.2680
vn 0.6071 -0.7947 0.0000
vn 0.3313 -0.9435 0.0000
vn -0.0385 -0.6617 0.7488
vn 0.1876 -0.7947 0.5773
vn 0.4713 -0.6617 0.5831
usemtl Material.001
s off
f 1//1 14//1 13//1
f 2//2 14//2 16//2
f 1//3 13//3 18//3
f 1//4 18//4 20//4
f 1//5 20//5 17//5
f 2//6 16//6 23//6
f 3//7 15//7 25//7
f 4//8 19//8 27//8
f 5//9 21//9 29//9
f 6//10 22//10 31//10
f 2//11 23//11 26//11
f 3//12 25//12 28//12
f 4//13 27//13 30//13
f 5//14 29//14 32//14
f 6//15 31//15 24//15
f 7//16 33//16 38//16
f 8//17 34//17 40//17
f 9//18 35//18 41//18
f 10//19 36//19 42//19
f 11//20 37//20 39//20
f 39//21 42//21 12//21
f 39//22 37//22 42//22
f 37//23 10//23 42//23
f 42//24 41//24 12//24
f 42//25 36//25 41//25
f 36//26 9//26 41//26
f 41//27 40//27 12//27
f 41//28 35//28 40//28
f 35//29 8//29 40//29
f 40//30 38//30 12//30
f 40//31 34//31 38//31
f 34//32 7//32 38//32
f 38//33 39//33 12//33
f 38//34 33//34 39//34
f 33//35 11//35 39//35
f 24//36 37//36 11//36
f 24//37 31//37 37//37
f 31//38 10//38 37//38
f 32//39 36//39 10//39
f 32//40 29//40 36//40
f 29//41 9//41 36//41
f 30//42 35//42 9//42
f 30//43 27//43 35//43
f 27//44 8//44 35//44
f 28//45 34//45 8//45
f 28//46 25//46 34//46
f 25//47 7//47 34//47
f 26//48 33//48 7//48
f 26//49 23//49 33//49
f 23//50 11//50 33//50
f 31//51 32//51 10//51
f 31//52 22//52 32//52
f 22//53 5//53 32//53
f 29//54 30//54 9//54
f 29//55 21//55 30//55
f 21//56 4//56 30//56
f 27//57 28//57 8//57
f 27//58 19//58 28//58
f 19//59 3//59 28//59
f 25//60 26//60 7//60
f 25//61 15//61 26//61
f 15//62 2//62 26//62
f 23//63 24//63 11//63
f 23//64 16//64 24//64
f 16//65 6//65 24//65
f 17//66 22//66 6//66
f 17//67 20//67 22//67
f 20//68 5//68 22//68
f 20//69 21//69 5//69
f 20//70 18//70 21//70
f 18//71 4//71 21//71
f 18//72 19//72 4//72
f 18//73 13//73 19//73
f 13//74 3//74 19//74
f 16//75 17//75 6//75
f 16//76 14//76 17//76
f 14//77 1//77 17//77
f 13//78 15//78 3//78
f 13//79 14//79 15//79
f 14//80 2//80 15//80
o Plane.005
v -0.012054 0.387382 0.999891
v 0.209333 0.353966 0.999891
v -0.012054 0.387382 -1.000109
v 0.209333 0.353966 -1.000109
vn 0.1493 0.9888 0.0000
usemtl None
s off
f 43//81 44//81 46//81 45//81
o Plane.004
v -0.219097 0.387382 0.999891
v 0.002290 0.353966 0.999891
v -0.219097 0.387382 -1.000109
v 0.002290 0.353966 -1.000109
vn 0.1493 0.9888 0.0000
usemtl None
s off
f 47//82 48//82 50//82 49//82
o Plane.003
v -0.289135 0.419118 0.999891
v -0.289135 -0.001468 0.999891
v -0.289135 0.419118 -1.000109
v -0.289135 -0.001468 -1.000109
vn 1.0000 0.0000 0.0000
usemtl None
s off
f 51//83 52//83 54//83 53//83
o Plane.002
v 0.302226 0.419118 0.999891
v 0.302226 -0.001468 0.999891
v 0.302226 0.419118 -1.000109
v 0.302226 -0.001468 -1.000109
vn 1.0000 0.0000 0.0000
usemtl None
s off
f 55//84 56//84 58//84 57//84
o Plane.001
v -0.300612 0.408015 0.999891
v 0.310674 0.408015 0.999891
v -0.300612 0.408015 -1.000109
v 0.310674 0.408015 -1.000109
vn 0.0000 1.0000 0.0000
usemtl None
s off
f 59//85 60//85 62//85 61//85
o Plane
v -0.300612 0.000000 0.999891
v 0.310674 0.000000 0.999891
v -0.300612 0.000000 -1.000109
v 0.310674 0.000000 -1.000109
vn 0.0000 1.0000 0.0000
usemtl None
s off
f 63//86 64//86 66//86 65//86
o Cube.000_Cube.002
v 0.249619 0.007205 -0.761300
v 0.251988 0.312398 -0.769268
v 0.249620 0.007205 -0.622901
v 0.251988 0.312398 -0.614932
v 0.236243 0.007205 -0.761300
v 0.239930 0.310051 -0.769268
v 0.236243 0.007205 -0.622901
v 0.239930 0.310051 -0.614932
v 0.251988 0.007205 -0.614932
v 0.251988 0.007205 -0.769268
v 0.233280 0.007205 -0.614932
v 0.233280 0.007205 -0.769268
v 0.249620 0.001460 -0.622901
v 0.249619 0.001460 -0.761300
v 0.236243 0.001460 -0.622901
v 0.236243 0.001460 -0.761300
v 0.251988 0.305857 -0.769268
v 0.251988 0.305857 -0.614932
v 0.233280 0.305857 -0.614932
v 0.233280 0.305857 -0.769268
v 0.249620 0.007205 -0.524034
v 0.251988 0.312398 -0.532003
v 0.249620 0.007205 -0.385635
v 0.251988 0.312398 -0.377666
v 0.236243 0.007205 -0.524034
v 0.239930 0.310051 -0.532003
v 0.236243 0.007205 -0.385635
v 0.239930 0.310051 -0.377666
v 0.251988 0.007205 -0.377666
v 0.251988 0.007205 -0.532003
v 0.233280 0.007205 -0.377666
v 0.233280 0.007205 -0.532003
v 0.249620 0.001460 -0.385635
v 0.249620 0.001460 -0.524034
v 0.236243 0.001460 -0.385635
v 0.236243 0.001460 -0.524034
v 0.251988 0.305857 -0.532003
v 0.251988 0.305857 -0.377666
v 0.233280 0.305857 -0.377666
v 0.233280 0.305857 -0.532003
v 0.249620 0.007205 -0.286769
v 0.251988 0.312398 -0.294738
v 0.249620 0.007205 -0.148370
v 0.251988 0.312398 -0.140401
v 0.236243 0.007205 -0.286769
v 0.239930 0.310051 -0.294738
v 0.236243 0.007205 -0.148370
v 0.239930 0.310051 -0.140401
v 0.251988 0.007205 -0.140401
v 0.251988 0.007205 -0.294738
v 0.233280 0.007205 -0.140401
v 0.233280 0.007205 -0.294738
v 0.249620 0.001460 -0.148370
v 0.249620 0.001460 -0.286769
v 0.236243 0.001460 -0.148370
v 0.236243 0.001460 -0.286769
v 0.251988 0.305857 -0.294738
v 0.251988 0.305857 -0.140401
v 0.233280 0.305857 -0.140401
v 0.233280 0.305857 -0.294738
v 0.249620 0.007205 -0.049504
v 0.251988 0.312398 -0.057473
v 0.249620 0.007205 0.088895
v 0.251988 0.312398 0.096864
v 0.236243 0.007205 -0.049504
v 0.239931 0.310051 -0.057473
v 0.236243 0.007205 0.088895
v 0.239931 0.310051 0.096864
v 0.251988 0.007205 0.096864
v 0.251988 0.007205 -0.057473
v 0.233280 0.007205 0.096864
v 0.233280 0.007205 -0.057473
v 0.249620 0.001460 0.088895
v 0.249620 0.001460 -0.049504
v 0.236243 0.001460 0.088895
v 0.236243 0.001460 -0.049504
v 0.251988 0.305857 -0.057473
v 0.251988 0.305857 0.096864
v 0.233280 0.305857 0.096864
v 0.233280 0.305857 -0.057473
v 0.249620 0.007205 0.187761
v 0.251988 0.312398 0.179792
v 0.249620 0.007205 0.326160
v 0.251988 0.312398 0.334129
v 0.236243 0.007205 0.187761
v 0.239931 0.310051 0.179792
v 0.236243 0.007205 0.326160
v 0.239931 0.310051 0.334129
v 0.251988 0.007205 0.334129
v 0.251988 0.007205 0.179792
v 0.233280 0.007205 0.334129
v 0.233280 0.007205 0.179792
v 0.249620 0.001460 0.326160
v 0.249620 0.001460 0.187761
v 0.236243 0.001460 0.326160
v 0.236243 0.001460 0.187761
v 0.251988 0.305857 0.179792
v 0.251988 0.305857 0.334129
v 0.233280 0.305857 0.334129
v 0.233280 0.305857 0.179792
v 0.249620 0.007205 0.425027
v 0.251988 0.312398 0.417058
v 0.249620 0.007205 0.563425
v 0.251988 0.312398 0.571395
v 0.236243 0.007205 0.425027
v 0.239931 0.310051 0.417058
v 0.236243 0.007205 0.563425
v 0.239931 0.310051 0.571395
v 0.251988 0.007205 0.571395
v 0.251988 0.007205 0.417058
v 0.233281 0.007205 0.571395
v 0.233281 0.007205 0.417058
v 0.249620 0.001460 0.563425
v 0.249620 0.001460 0.425027
v 0.236243 0.001460 0.563425
v 0.236243 0.001460 0.425027
v 0.251988 0.305857 0.417058
v 0.251988 0.305857 0.571395
v 0.233281 0.305857 0.571395
v 0.233281 0.305857 0.417058
v 0.249620 0.007205 0.662292
v 0.251988 0.312398 0.654323
v 0.249620 0.007205 0.800691
v 0.251988 0.312398 0.808660
v 0.236243 0.007205 0.662292
v 0.239931 0.310051 0.654323
v 0.236243 0.007205 0.800691
v 0.239931 0.310051 0.808660
v 0.251988 0.007205 0.808660
v 0.251988 0.007205 0.654323
v 0.233281 0.007205 0.808660
v 0.233281 0.007205 0.654323
v 0.249620 0.001460 0.800691
v 0.249620 0.001460 0.662292
v 0.236243 0.001460 0.800691
v 0.236243 0.001460 0.662292
v 0.251988 0.305857 0.654323
v 0.251988 0.305857 0.808660
v 0.233281 0.305857 0.808660
v 0.233281 0.305857 0.654323
vn 1.0000 0.0000 -0.0000
vn 0.0000 0.0000 1.0000
vn -0.5334 0.8459 0.0000
vn 0.0000 0.0000 -1.0000
vn -1.0000 0.0000 0.0000
vn -0.1911 0.9816 0.0000
vn 0.0000 -1.0000 -0.0000
usemtl None
s off
f 83//87 68//87 70//87 84//87
f 84//88 70//88 74//88 85//88
f 85//89 74//89 72//89 86//89
f 86//90 72//90 68//90 83//90
f 73//91 71//91 82//91 81//91
f 74//92 70//92 68//92 72//92
f 69//93 67//93 76//93 75//93
f 73//93 69//93 75//93 77//93
f 71//93 73//93 77//93 78//93
f 67//93 71//93 78//93 76//93
f 79//93 81//93 82//93 80//93
f 67//87 69//87 79//87 80//87
f 71//90 67//90 80//90 82//90
f 69//88 73//88 81//88 79//88
f 78//90 86//90 83//90 76//90
f 77//91 85//91 86//91 78//91
f 75//88 84//88 85//88 77//88
f 76//87 83//87 84//87 75//87
f 103//87 88//87 90//87 104//87
f 104//88 90//88 94//88 105//88
f 105//89 94//89 92//89 106//89
f 106//90 92//90 88//90 103//90
f 93//91 91//91 102//91 101//91
f 94//92 90//92 88//92 92//92
f 89//93 87//93 96//93 95//93
f 93//93 89//93 95//93 97//93
f 91//93 93//93 97//93 98//93
f 87//93 91//93 98//93 96//93
f 99//93 101//93 102//93 100//93
f 87//87 89//87 99//87 100//87
f 91//90 87//90 100//90 102//90
f 89//88 93//88 101//88 99//88
f 98//90 106//90 103//90 96//90
f 97//91 105//91 106//91 98//91
f 95//88 104//88 105//88 97//88
f 96//87 103//87 104//87 95//87
f 123//87 108//87 110//87 124//87
f 124//88 110//88 114//88 125//88
f 125//89 114//89 112//89 126//89
f 126//90 112//90 108//90 123//90
f 113//91 111//91 122//91 121//91
f 114//92 110//92 108//92 112//92
f 109//93 107//93 116//93 115//93
f 113//93 109//93 115//93 117//93
f 111//93 113//93 117//93 118//93
f 107//93 111//93 118//93 116//93
f 119//93 121//93 122//93 120//93
f 107//87 109//87 119//87 120//87
f 111//90 107//90 120//90 122//90
f 109//88 113//88 121//88 119//88
f 118//90 126//90 123//90 116//90
f 117//91 125//91 126//91 118//91
f 115//88 124//88 125//88 117//88
f 116//87 123//87 124//87 115//87
f 143//87 128//87 130//87 144//87
f 144//88 130//88 134//88 145//88
f 145//89 134//89 132//89 146//89
f 146//90 132//90 128//90 143//90
f 133//91 131//91 142//91 141//91
f 134//92 130//92 128//92 132//92
f 129//93 127//93 136//93 135//93
f 133//93 129//93 135//93 137//93
f 131//93 133//93 137//93 138//93
f 127//93 131//93 138//93 136//93
f 139//93 141//93 142//93 140//93
f 127//87 129//87 139//87 140//87
f 131//90 127//90 140//90 142//90
f 129//88 133//88 141//88 139//88
f 138//90 146//90 143//90 136//90
f 137//91 145//91 146//91 138//91
f 135//88 144//88 145//88 137//88
f 136//87 143//87 144//87 135//87
f 163//87 148//87 150//87 164//87
f 164//88 150//88 154//88 165//88
f 165//89 154//89 152//89 166//89
f 166//90 152//90 148//90 163//90
f 153//91 151//91 162//91 161//91
f 154//92 150//92 148//92 152//92
f 149//93 147//93 156//93 155//93
f 153//93 149//93 155//93 157//93
f 151//93 153//93 157//93 158//93
f 147//93 151//93 158//93 156//93
f 159//93 161//93 162//93 160//93
f 147//87 149//87 159//87 160//87
f 151//90 147//90 160//90 162//90
f 149//88 153//88 161//88 159//88
f 158//90 166//90 163//90 156//90
f 157//91 165//91 166//91 158//91
f 155//88 164//88 165//88 157//88
f 156//87 163//87 164//87 155//87
f 183//87 168//87 170//87 184//87
f 184//88 170//88 174//88 185//88
f 185//89 174//89 172//89 186//89
f 186//90 172//90 168//90 183//90
f 173//91 171//91 182//91 181//91
f 174//92 170//92 168//92 172//92
f 169//93 167//93 176//93 175//93
f 173//93 169//93 175//93 177//93
f 171//93 173//93 177//93 178//93
f 167//93 171//93 178//93 176//93
f 179//93 181//93 182//93 180//93
f 167//87 169//87 179//87 180//87
f 171//90 167//90 180//90 182//90
f 169//88 173//88 181//88 179//88
f 178//90 186//90 183//90 176//90
f 177//91 185//91 186//91 178//91
f 175//88 184//88 185//88 177//88
f 176//87 183//87 184//87 175//87
f 203//87 188//87 190//87 204//87
f 204//88 190//88 194//88 205//88
f 205//89 194//89 192//89 206//89
f 206//90 192//90 188//90 203//90
f 193//91 191//91 202//91 201//91
f 194//92 190//92 188//92 192//92
f 189//93 187//93 196//93 195//93
f 193//93 189//93 195//93 197//93
f 191//93 193//93 197//93 198//93
f 187//93 191//93 198//93 196//93
f 199//93 201//93 202//93 200//93
f 187//87 189//87 199//87 200//87
f 191//90 187//90 200//90 202//90
f 189//88 193//88 201//88 199//88
f 198//90 206//90 203//90 196//90
f 197//91 205//91 206//91 198//91
f 195//88 204//88 205//88 197//88
f 196//87 203//87 204//87 195//87
o Cube.001
v -0.231972 0.007205 0.800690
v -0.234340 0.312398 0.808659
v -0.231972 0.007205 0.662291
v -0.234340 0.312398 0.654322
v -0.218595 0.007205 0.800690
v -0.222283 0.310051 0.808659
v -0.218595 0.007205 0.662291
v -0.222283 0.310051 0.654322
v -0.234340 0.007205 0.654322
v -0.234340 0.007205 0.808659
v -0.215632 0.007205 0.654322
v -0.215632 0.007205 0.808659
v -0.231972 0.001460 0.662291
v -0.231972 0.001460 0.800690
v -0.218595 0.001460 0.662291
v -0.218595 0.001460 0.800690
v -0.234340 0.305857 0.808659
v -0.234340 0.305857 0.654322
v -0.215632 0.305857 0.654322
v -0.215632 0.305857 0.808659
v -0.231972 0.007205 0.563425
v -0.234340 0.312398 0.571394
v -0.231972 0.007205 0.425026
v -0.234340 0.312398 0.417057
v -0.218595 0.007205 0.563425
v -0.222283 0.310051 0.571394
v -0.218595 0.007205 0.425026
v -0.222283 0.310051 0.417057
v -0.234340 0.007205 0.417057
v -0.234340 0.007205 0.571394
v -0.215632 0.007205 0.417057
v -0.215632 0.007205 0.571394
v -0.231972 0.001460 0.425026
v -0.231972 0.001460 0.563425
v -0.218595 0.001460 0.425026
v -0.218595 0.001460 0.563425
v -0.234340 0.305857 0.571394
v -0.234340 0.305857 0.417057
v -0.215632 0.305857 0.417057
v -0.215632 0.305857 0.571394
v -0.231972 0.007205 0.326160
v -0.234340 0.312398 0.334129
v -0.231972 0.007205 0.187761
v -0.234340 0.312398 0.179792
v -0.218595 0.007205 0.326160
v -0.222283 0.310051 0.334129
v -0.218595 0.007205 0.187761
v -0.222283 0.310051 0.179792
v -0.234340 0.007205 0.179792
v -0.234340 0.007205 0.334129
v -0.215632 0.007205 0.179792
v -0.215632 0.007205 0.334129
v -0.231972 0.001460 0.187761
v -0.231972 0.001460 0.326160
v -0.218595 0.001460 0.187761
v -0.218595 0.001460 0.326160
v -0.234340 0.305857 0.334129
v -0.234340 0.305857 0.179792
v -0.215632 0.305857 0.179792
v -0.215632 0.305857 0.334129
v -0.231972 0.007205 0.088895
v -0.234340 0.312398 0.096863
v -0.231972 0.007205 -0.049504
v -0.234340 0.312398 -0.057473
v -0.218595 0.007205 0.088895
v -0.222283 0.310051 0.096863
v -0.218595 0.007205 -0.049504
v -0.222283 0.310051 -0.057473
v -0.234340 0.007205 -0.057473
v -0.234340 0.007205 0.096863
v -0.215632 0.007205 -0.057473
v -0.215632 0.007205 0.096863
v -0.231972 0.001460 -0.049504
v -0.231972 0.001460 0.088895
v -0.218595 0.001460 -0.049504
v -0.218595 0.001460 0.088895
v -0.234340 0.305857 0.096863
v -0.234340 0.305857 -0.057473
v -0.215632 0.305857 -0.057473
v -0.215632 0.305857 0.096863
v -0.231972 0.007205 -0.148371
v -0.234340 0.312398 -0.140402
v -0.231972 0.007205 -0.286770
v -0.234340 0.312398 -0.294739
v -0.218595 0.007205 -0.148371
v -0.222283 0.310051 -0.140402
v -0.218595 0.007205 -0.286770
v -0.222283 0.310051 -0.294739
v -0.234340 0.007205 -0.294739
v -0.234340 0.007205 -0.140402
v -0.215632 0.007205 -0.294739
v -0.215632 0.007205 -0.140402
v -0.231972 0.001460 -0.286770
v -0.231972 0.001460 -0.148371
v -0.218595 0.001460 -0.286770
v -0.218595 0.001460 -0.148371
v -0.234340 0.305857 -0.140402
v -0.234340 0.305857 -0.294739
v -0.215632 0.305857 -0.294739
v -0.215632 0.305857 -0.140402
v -0.231972 0.007205 -0.385636
v -0.234340 0.312398 -0.377667
v -0.231972 0.007205 -0.524035
v -0.234340 0.312398 -0.532004
v -0.218595 0.007205 -0.385636
v -0.222283 0.310051 -0.377667
v -0.218595 0.007205 -0.524035
v -0.222283 0.310051 -0.532004
v -0.234340 0.007205 -0.532004
v -0.234340 0.007205 -0.377667
v -0.215632 0.007205 -0.532004
v -0.215632 0.007205 -0.377667
v -0.231972 0.001460 -0.524035
v -0.231972 0.001460 -0.385636
v -0.218595 0.001460 -0.524035
v -0.218595 0.001460 -0.385636
v -0.234340 0.305857 -0.377667
v -0.234340 0.305857 -0.532004
v -0.215632 0.305857 -0.532004
v -0.215632 0.305857 -0.377667
v -0.231972 0.007205 -0.622901
v -0.234340 0.312398 -0.614932
v -0.231972 0.007205 -0.761300
v -0.234340 0.312398 -0.769269
v -0.218595 0.007205 -0.622901
v -0.222283 0.310051 -0.614932
v -0.218595 0.007205 -0.761300
v -0.222283 0.310051 -0.769269
v -0.234340 0.007205 -0.769269
v -0.234340 0.007205 -0.614932
v -0.215632 0.007205 -0.769269
v -0.215632 0.007205 -0.614932
v -0.231972 0.001460 -0.761300
v -0.231972 0.001460 -0.622901
v -0.218595 0.001460 -0.761300
v -0.218595 0.001460 -0.622901
v -0.234340 0.305857 -0.614932
v -0.234340 0.305857 -0.769269
v -0.215632 0.305857 -0.769269
v -0.215632 0.305857 -0.614932
vn -1.0000 0.0000 0.0000
vn -0.0000 0.0000 -1.0000
vn 0.5334 0.8459 0.0000
vn -0.0000 0.0000 1.0000
vn 1.0000 0.0000 0.0000
vn 0.1911 0.9816 0.0000
vn 0.0000 -1.0000 0.0000
usemtl None
s off
f 223//94 208//94 210//94 224//94
f 224//95 210//95 214//95 225//95
f 225//96 214//96 212//96 226//96
f 226//97 212//97 208//97 223//97
f 213//98 211//98 222//98 221//98
f 214//99 210//99 208//99 212//99
f 209//100 207//100 216//100 215//100
f 213//100 209//100 215//100 217//100
f 211//100 213//100 217//100 218//100
f 207//100 211//100 218//100 216//100
f 219//100 221//100 222//100 220//100
f 207//94 209//94 219//94 220//94
f 211//97 207//97 220//97 222//97
f 209//95 213//95 221//95 219//95
f 218//97 226//97 223//97 216//97
f 217//98 225//98 226//98 218//98
f 215//95 224//95 225//95 217//95
f 216//94 223//94 224//94 215//94
f 243//94 228//94 230//94 244//94
f 244//95 230//95 234//95 245//95
f 245//96 234//96 232//96 246//96
f 246//97 232//97 228//97 243//97
f 233//98 231//98 242//98 241//98
f 234//99 230//99 228//99 232//99
f 229//100 227//100 236//100 235//100
f 233//100 229//100 235//100 237//100
f 231//100 233//100 237//100 238//100
f 227//100 231//100 238//100 236//100
f 239//100 241//100 242//100 240//100
f 227//94 229//94 239//94 240//94
f 231//97 227//97 240//97 242//97
f 229//95 233//95 241//95 239//95
f 238//97 246//97 243//97 236//97
f 237//98 245//98 246//98 238//98
f 235//95 244//95 245//95 237//95
f 236//94 243//94 244//94 235//94
f 263//94 248//94 250//94 264//94
f 264//95 250//95 254//95 265//95
f 265//96 254//96 252//96 266//96
f 266//97 252//97 248//97 263//97
f 253//98 251//98 262//98 261//98
f 254//99 250//99 248//99 252//99
f 249//100 247//100 256//100 255//100
f 253//100 249//100 255//100 257//100
f 251//100 253//100 257//100 258//100
f 247//100 251//100 258//100 256//100
f 259//100 261//100 262//100 260//100
f 247//94 249//94 259//94 260//94
f 251//97 247//97 260//97 262//97
f 249//95 253//95 261//95 259//95
f 258//97 266//97 263//97 256//97
f 257//98 265//98 266//98 258//98
f 255//95 264//95 265//95 257//95
f 256//94 263//94 264//94 255//94
f 283//94 268//94 270//94 284//94
f 284//95 270//95 274//95 285//95
f 285//96 274//96 272//96 286//96
f 286//97 272//97 268//97 283//97
f 273//98 271//98 282//98 281//98
f 274//99 270//99 268//99 272//99
f 269//100 267//100 276//100 275//100
f 273//100 269//100 275//100 277//100
f 271//100 273//100 277//100 278//100
f 267//100 271//100 278//100 276//100
f 279//100 281//100 282//100 280//100
f 267//94 269//94 279//94 280//94
f 271//97 267//97 280//97 282//97
f 269//95 273//95 281//95 279//95
f 278//97 286//97 283//97 276//97
f 277//98 285//98 286//98 278//98
f 275//95 284//95 285//95 277//95
f 276//94 283//94 284//94 275//94
f 303//94 288//94 290//94 304//94
f 304//95 290//95 294//95 305//95
f 305//96 294//96 292//96 306//96
f 306//97 292//97 288//97 303//97
f 293//98 291//98 302//98 301//98
f 294//99 290//99 288//99 292//99
f 289//100 287//100 296//100 295//100
f 293//100 289//100 295//100 297//100
f 291//100 293//100 297//100 298//100
f 287//100 291//100 298//100 296//100
f 299//100 301//100 302//100 300//100
f 287//94 289//94 299//94 300//94
f 291//97 287//97 300//97 302//97
f 289//95 293//95 301//95 299//95
f 298//97 306//97 303//97 296//97
f 297//98 305//98 306//98 298//98
f 295//95 304//95 305//95 297//95
f 296//94 303//94 304//94 295//94
f 323//94 308//94 310//94 324//94
f 324//95 310//95 314//95 325//95
f 325//96 314//96 312//96 326//96
f 326//97 312//97 308//97 323//97
f 313//98 311//98 322//98 321//98
f 314//99 310//99 308//99 312//99
f 309//100 307//100 316//100 315//100
f 313//100 309//100 315//100 317//100
f 311//100 313//100 317//100 318//100
f 307//100 311//100 318//100 316//100
f 319//100 321//100 322//100 320//100
f 307//94 309//94 319//94 320//94
f 311//97 307//97 320//97 322//97
f 309//95 313//95 321//95 319//95
f 318//97 326//97 323//97 316//97
f 317//98 325//98 326//98 318//98
f 315//95 324//95 325//95 317//95
f 316//94 323//94 324//94 315//94
f 343//94 328//94 330//94 344//94
f 344//95 330//95 334//95 345//95
f 345//96 334//96 332//96 346//96
f 346//97 332//97 328//97 343//97
f 333//98 331//98 342//98 341//98
f 334//99 330//99 328//99 332//99
f 329//100 327//100 336//100 335//100
f 333//100 329//100 335//100 337//100
f 331//100 333//100 337//100 338//100
f 327//100 331//100 338//100 336//100
f 339//100 341//100 342//100 340//100
f 327//94 329//94 339//94 340//94
f 331//97 327//97 340//97 342//97
f 329//95 333//95 341//95 339//95
f 338//97 346//97 343//97 336//97
f 337//98 345//98 346//98 338//98
f 335//95 344//95 345//95 337//95
f 336//94 343//94 344//94 335//94
